<svg viewBox="0 0 815.52 173.99" xmlns="http://www.w3.org/2000/svg" xmlns:xlink="http://www.w3.org/1999/xlink"><linearGradient id="a" gradientUnits="userSpaceOnUse" x1="537.76" x2="561.52" y1="87.15" y2="87.15"><stop offset="0" stop-color="#f7164e"/><stop offset="1" stop-color="#f83a5a"/></linearGradient><linearGradient id="b" x1="261.18" x2="287.03" xlink:href="#a" y1="100.84" y2="100.84"/><linearGradient id="c" x1="0" x2="183.74" xlink:href="#a" y1="86.99" y2="86.99"/><linearGradient id="d" x1="118.93" x2="815.52" xlink:href="#a" y1="86.99" y2="86.99"/><path d="m559 84.9a9.68 9.68 0 0 0 -3.48-2.74 11.87 11.87 0 0 0 -5.23-1q-5.42 0-8.49 3.11t-4.07 9h23.76a17.2 17.2 0 0 0 -.58-4.43 10.78 10.78 0 0 0 -1.91-3.94z" fill="url(#a)"/><path d="m274.23 82.1q-6.78 0-9.91 4.62t-3.14 14.09q0 9.48 3.14 14.12t9.91 4.65q6.58 0 9.69-4.65t3.08-14.12q0-9.48-3.11-14.09t-9.66-4.62z" fill="url(#b)"/><path d="m87 0a17.34 17.34 0 0 0 -12.23 5.07l-69.21 68.42a19.19 19.19 0 0 0 0 27l69.21 68.41a17.35 17.35 0 0 0 12.23 5.1h12.1l84.64-174z" fill="url(#c)"/><path d="m810 73.49-69.25-68.42a17.34 17.34 0 0 0 -12.19-5.07h-524.94l-84.69 174h609.63a17.35 17.35 0 0 0 12.19-5.08l69.25-68.42a19.19 19.19 0 0 0 0-27.01zm-577.32 42.89a24.33 24.33 0 0 1 -6.49 8.59 30.69 30.69 0 0 1 -10.56 5.72 45.7 45.7 0 0 1 -14.34 2.06h-33.1l7.63-15.69h25.11a18.27 18.27 0 0 0 6.73-1 10.68 10.68 0 0 0 4.1-2.71 9.11 9.11 0 0 0 2-3.75 16.52 16.52 0 0 0 .55-4.25 14.19 14.19 0 0 0 -.64-4.43 7.29 7.29 0 0 0 -2.22-3.32 11 11 0 0 0 -4.15-2.1 24.41 24.41 0 0 0 -6.53-.73h-14.07l6.77-13.91h3.64a36.59 36.59 0 0 0 6.22-.49 13 13 0 0 0 4.7-1.73 7.91 7.91 0 0 0 3-3.38 12.82 12.82 0 0 0 1-5.42 15.05 15.05 0 0 0 -.8-5.32 7.56 7.56 0 0 0 -2.46-3.42 10.23 10.23 0 0 0 -4.21-1.84c-.16 0-.35-.05-.51-.08l7.29-15c1 .2 2 .4 3 .65a30 30 0 0 1 10.65 4.87 18.35 18.35 0 0 1 6 7.63 25.8 25.8 0 0 1 1.88 10 19.42 19.42 0 0 1 -.87 5.81 16.65 16.65 0 0 1 -2.7 5.24 21.2 21.2 0 0 1 -4.74 4.46 30.16 30.16 0 0 1 -7 3.51q8.86 2.15 13.11 7t4.25 12.43a25.59 25.59 0 0 1 -2.24 10.6zm71.67-1.94a29.61 29.61 0 0 1 -6.64 10.4 29.3 29.3 0 0 1 -10.25 6.59 36.39 36.39 0 0 1 -13.23 2.31 36.82 36.82 0 0 1 -13.33-2.31 29.86 29.86 0 0 1 -10.34-6.59 29.21 29.21 0 0 1 -6.71-10.4 37.85 37.85 0 0 1 -2.37-13.75 37.25 37.25 0 0 1 2.37-13.64 29.1 29.1 0 0 1 6.71-10.31 29.7 29.7 0 0 1 10.34-6.52 37.25 37.25 0 0 1 13.33-2.28 36.81 36.81 0 0 1 13.23 2.28 29.14 29.14 0 0 1 10.25 6.52 29.5 29.5 0 0 1 6.64 10.31 37.25 37.25 0 0 1 2.37 13.64 37.85 37.85 0 0 1 -2.37 13.75zm69.83 18.31h-19.08v-40.56c0-3.11-.72-5.55-2.16-7.29a7.74 7.74 0 0 0 -6.34-2.62 13.33 13.33 0 0 0 -5.87 1.33 23.6 23.6 0 0 0 -5.33 3.6v45.54h-19.08v-63.82h11.82a4.49 4.49 0 0 1 4.68 3.2l1.11 3.69a47.46 47.46 0 0 1 3.81-3.2 22.61 22.61 0 0 1 4.26-2.49 24.51 24.51 0 0 1 4.86-1.6 26 26 0 0 1 5.69-.59 22.31 22.31 0 0 1 9.26 1.82 19.2 19.2 0 0 1 6.81 5 21.72 21.72 0 0 1 4.18 7.69 32.05 32.05 0 0 1 1.42 9.69zm31.81 0h-19.07v-63.82h19.08zm1.05-77a11.37 11.37 0 0 1 -2.52 3.51 12.57 12.57 0 0 1 -3.73 2.4 11.61 11.61 0 0 1 -4.52.89 10.81 10.81 0 0 1 -4.37-.89 12.59 12.59 0 0 1 -3.6-2.4 11 11 0 0 1 -2.46-3.51 10.32 10.32 0 0 1 -.89-4.28 10.64 10.64 0 0 1 .89-4.37 11.29 11.29 0 0 1 2.46-3.57 11.82 11.82 0 0 1 3.6-2.4 11.13 11.13 0 0 1 4.37-.86 12 12 0 0 1 4.52.86 11.83 11.83 0 0 1 3.73 2.4 11.63 11.63 0 0 1 2.48 3.55 10.35 10.35 0 0 1 .92 4.37 10 10 0 0 1 -.92 4.28zm55.82 65a18.44 18.44 0 0 1 -5.14 6.89 24.21 24.21 0 0 1 -8.43 4.5 38.17 38.17 0 0 1 -11.54 1.6 35.11 35.11 0 0 1 -6.52-.62 44.59 44.59 0 0 1 -6.31-1.66 34.84 34.84 0 0 1 -5.63-2.49 24.33 24.33 0 0 1 -4.43-3.11l4.43-7a5.8 5.8 0 0 1 1.87-1.94 5.5 5.5 0 0 1 2.93-.7 6 6 0 0 1 3 .73l2.87 1.6a22.62 22.62 0 0 0 3.6 1.6 15.36 15.36 0 0 0 5.2.74 13.16 13.16 0 0 0 3.75-.46 6.61 6.61 0 0 0 2.46-1.26 5 5 0 0 0 1.36-1.78 5.19 5.19 0 0 0 .43-2 4.1 4.1 0 0 0 -1.3-3.13 11.2 11.2 0 0 0 -3.38-2.13 41.66 41.66 0 0 0 -4.77-1.66c-1.78-.51-3.6-1.1-5.45-1.75a44.79 44.79 0 0 1 -5.44-2.37 18.86 18.86 0 0 1 -4.77-3.51 16.26 16.26 0 0 1 -3.39-5.2 20.87 20.87 0 0 1 .28-15.17 17.85 17.85 0 0 1 4.69-6.47 22.87 22.87 0 0 1 7.87-4.4 34 34 0 0 1 11.08-1.64 35.61 35.61 0 0 1 6.68.62 34.11 34.11 0 0 1 6.06 1.72 28.77 28.77 0 0 1 5.17 2.62 24.57 24.57 0 0 1 4.13 3.29l-4.31 6.71a5 5 0 0 1 -1.57 1.66 4.11 4.11 0 0 1 -2.12.49 6.75 6.75 0 0 1 -2.71-.58l-2.93-1.26a31.75 31.75 0 0 0 -3.53-1.23 15.88 15.88 0 0 0 -4.5-.59 9.47 9.47 0 0 0 -5.55 1.34 4.46 4.46 0 0 0 -2 3.84 3.84 3.84 0 0 0 1.27 3 11.57 11.57 0 0 0 3.35 2.06 45.76 45.76 0 0 0 4.74 1.69c1.76.54 3.57 1.13 5.41 1.79a46.85 46.85 0 0 1 5.42 2.3 20.5 20.5 0 0 1 4.74 3.27 14.62 14.62 0 0 1 3.35 4.7 16 16 0 0 1 1.27 6.65 21.85 21.85 0 0 1 -1.69 8.7zm40 12h-20.8v-73.18h-25.23v-16.49h71.27v16.49h-25.23zm75.57-32.06a5.45 5.45 0 0 1 -.67 2.15 2.62 2.62 0 0 1 -1.33 1.11 6.29 6.29 0 0 1 -2.12.31h-36.8q.91 8 4.86 11.6a14.45 14.45 0 0 0 10.15 3.6 18.3 18.3 0 0 0 5.73-.8 29.65 29.65 0 0 0 4.28-1.79l3.44-1.78a7.23 7.23 0 0 1 3.29-.8 3.94 3.94 0 0 1 3.45 1.66l5.54 6.83a28.35 28.35 0 0 1 -6.37 5.51 33 33 0 0 1 -7 3.32 37.44 37.44 0 0 1 -7.2 1.66 53.7 53.7 0 0 1 -6.86.47 35.7 35.7 0 0 1 -12.58-2.19 28.81 28.81 0 0 1 -10.24-6.49 30.48 30.48 0 0 1 -7-10.71 40.09 40.09 0 0 1 -2.55-14.9 33.87 33.87 0 0 1 2.18-12.12 29.46 29.46 0 0 1 16.19-16.86 35.27 35.27 0 0 1 24.74-.56 25.28 25.28 0 0 1 9.05 5.73 26.22 26.22 0 0 1 5.91 9.2 33.86 33.86 0 0 1 2.12 12.34 25.8 25.8 0 0 1 -.2 3.51zm55.95 27.6a31 31 0 0 1 -6.68 3.32 33.93 33.93 0 0 1 -6.86 1.66 50.17 50.17 0 0 1 -6.71.47 28.73 28.73 0 0 1 -11.13-2.22 27.45 27.45 0 0 1 -9.36-6.43 31 31 0 0 1 -6.4-10.37 38.82 38.82 0 0 1 -2.37-14 39.29 39.29 0 0 1 2.07-12.9 29.22 29.22 0 0 1 6.06-10.43 28.36 28.36 0 0 1 10-6.92 35 35 0 0 1 13.76-2.53 33.57 33.57 0 0 1 13.17 2.4 31.53 31.53 0 0 1 10.21 7l-5 6.71a10.39 10.39 0 0 1 -1.67 1.66 3.65 3.65 0 0 1 -2.27.62 4.92 4.92 0 0 1 -2.56-.68l-2.64-1.49a20.4 20.4 0 0 0 -3.33-1.51 14.32 14.32 0 0 0 -4.67-.65 13.35 13.35 0 0 0 -6.07 1.29 11.23 11.23 0 0 0 -4.25 3.71 16.77 16.77 0 0 0 -2.46 5.88 34.72 34.72 0 0 0 -.8 7.85c0 6.11 1.17 10.81 3.54 14.09a11.33 11.33 0 0 0 9.75 4.92 13.49 13.49 0 0 0 5.26-.83 16.42 16.42 0 0 0 3.3-1.84l2.49-1.88a4.63 4.63 0 0 1 2.86-.86 3.94 3.94 0 0 1 3.45 1.66l5.54 6.83a30.33 30.33 0 0 1 -6.22 5.47zm71.52 4.46h-19.07v-40.56c0-3.11-.72-5.55-2.16-7.29a7.74 7.74 0 0 0 -6.34-2.62 13.33 13.33 0 0 0 -5.87 1.33 23.38 23.38 0 0 0 -5.33 3.6v45.54h-19.08v-92.13h19.08v33.91a31 31 0 0 1 7.48-4.77 23.34 23.34 0 0 1 9.63-1.82 22.31 22.31 0 0 1 9.26 1.82 19.2 19.2 0 0 1 6.81 5 21.72 21.72 0 0 1 4.18 7.69 32.05 32.05 0 0 1 1.42 9.69z" fill="url(#d)"/></svg>